<svg width="48" height="48" viewBox="0 0 48 48" fill="none" xmlns="http://www.w3.org/2000/svg">
<rect width="48" height="48" fill="#ECEBEB"/>
<path d="M35.68 17.1521H33.088L32.768 14.8801C32.64 13.9521 32.16 13.1201 31.424 12.5441C30.688 11.9681 29.76 11.7441 28.832 11.8721L11.84 14.2401C9.92005 14.4961 8.57605 16.2881 8.83205 18.2081L10.432 30.0481C10.688 31.8081 12.192 33.0881 13.92 33.0881C14.08 33.0881 14.24 33.0881 14.4 33.0561L15.072 32.9601C15.232 34.7521 16.736 36.1601 18.56 36.1601H35.712C37.632 36.1601 39.232 34.5921 39.232 32.6401V20.6721C39.2 18.7521 37.632 17.1521 35.68 17.1521ZM37.28 20.6721V30.7201L32.224 24.9281C31.392 23.9681 29.856 23.9681 29.024 24.9281L24.672 29.9201L23.104 28.1921C22.304 27.3281 20.928 27.3281 20.16 28.1921L16.96 31.6801V20.6721C16.96 19.8081 17.664 19.0721 18.56 19.0721H35.712C36.576 19.0721 37.28 19.8081 37.28 20.6721ZM15.04 20.6721V30.9761L14.144 31.1041C13.28 31.2321 12.48 30.6241 12.352 29.7281L10.72 17.9201C10.592 17.0561 11.2 16.2561 12.096 16.1281L29.088 13.7921C29.152 13.7921 29.248 13.7921 29.312 13.7921C30.08 13.7921 30.784 14.3681 30.88 15.1681L31.168 17.1841H18.56C16.608 17.1521 15.04 18.7521 15.04 20.6721Z" fill="#B4B2B0"/>
<path d="M21.6002 25.216C22.6606 25.216 23.5202 24.3564 23.5202 23.296C23.5202 22.2356 22.6606 21.376 21.6002 21.376C20.5398 21.376 19.6802 22.2356 19.6802 23.296C19.6802 24.3564 20.5398 25.216 21.6002 25.216Z" fill="#B4B2B0"/>
</svg>
